<svg xmlns="http://www.w3.org/2000/svg" viewBox="0.5249019861221313 0.043945301324129105 700.5830688476562 700.43603515625" fill="#FFFFFF" preserveAspectRatio="xMidYMid meet" fill-opacity="1" style="box-shadow: none; border-radius: 0px; opacity: 1;" role="img">
<path d="M353.586 700.48H347.753L328.065 404.44L185.585 515.273L296.418 372.793L0.524902 353.252V347.419L296.565 327.731L185.732 185.251L328.212 296.084L347.9 0.0439453H353.733L373.421 296.084L515.901 185.251L405.068 327.731L701.108 347.419V353.252L405.068 372.94L515.901 515.42L373.421 404.587L353.586 700.48ZM333.17 393.213L350.67 656.587L368.17 393.213L482.358 482.025L393.546 367.837L656.92 350.337L393.546 332.837L482.358 218.649L368.17 307.461L350.67 44.2346L333.17 307.608L218.982 218.796L307.794 332.984L44.5676 350.339L307.941 367.839L219.129 482.027L333.17 393.213Z" fill="" style="undefined" fill-opacity=""></path>
</svg>