<svg width="281" height="21" viewBox="0 0 281 21" fill="none" xmlns="http://www.w3.org/2000/svg">
<path d="M3.73543 0.454218L11.6991 16.4275L19.0905 0.454218H20.7754L11.2063 21H10.2844L0 0.454218H3.73543Z" fill="black"/>
<path d="M23.716 0.454218H27.2607V20.5306H23.716V0.454218Z" fill="black"/>
<path d="M36.337 10.5681C36.337 11.9712 36.5596 13.2329 37.0046 14.3533C37.4497 15.4636 38.059 16.4074 38.8326 17.1846C39.6168 17.9517 40.5387 18.5422 41.5984 18.956C42.6581 19.3598 43.8079 19.5616 45.0477 19.5616C45.7895 19.5616 46.5048 19.4254 47.1936 19.1528C47.8824 18.8803 48.5183 18.527 49.1011 18.093C49.6945 17.6489 50.2244 17.1543 50.6906 16.6092C51.1569 16.0541 51.5384 15.4939 51.8351 14.9286L53.3293 15.8371C52.8948 16.5133 52.3808 17.1644 51.7874 17.7902C51.194 18.4059 50.5052 18.956 49.721 19.4405C48.9474 19.9149 48.0679 20.2934 47.0824 20.5761C46.1074 20.8587 45.016 21 43.8079 21C42.0594 21 40.4698 20.7224 39.0393 20.1673C37.6193 19.6121 36.4006 18.8601 35.3833 17.9113C34.366 16.9625 33.5765 15.8572 33.0149 14.5955C32.4638 13.3237 32.1883 11.9813 32.1883 10.5681C32.1883 9.62942 32.3155 8.71593 32.5698 7.82769C32.8241 6.92934 33.1897 6.09156 33.6666 5.31435C34.1541 4.52704 34.7422 3.81038 35.431 3.16438C36.1304 2.50829 36.9146 1.94809 37.7835 1.48378C38.6631 1.00937 39.6221 0.645999 40.6606 0.393655C41.6991 0.131218 42.8065 0 43.9827 0C45.106 0 46.1392 0.146359 47.0824 0.439077C48.0361 0.721702 48.8997 1.10022 49.6733 1.57462C50.4575 2.04903 51.1516 2.59913 51.7556 3.22495C52.3703 3.84066 52.8948 4.48666 53.3293 5.16294L51.7874 6.13194C50.9079 4.50685 49.9223 3.32084 48.8309 2.5739C47.7394 1.81687 46.4836 1.43836 45.0636 1.43836C43.845 1.43836 42.7058 1.65032 41.6461 2.07426C40.5864 2.4982 39.6592 3.10382 38.8644 3.89113C38.0802 4.67844 37.4603 5.63735 37.0046 6.76784C36.5596 7.88825 36.337 9.15501 36.337 10.5681Z" fill="black"/>
<path d="M74.8358 0.454218V1.75631H67.206V20.5306H63.6613V1.75631H56.0315V0.454218H74.8358Z" fill="black"/>
<path d="M88.9828 21C87.3509 21 85.8249 20.7224 84.4049 20.1673C82.9955 19.6121 81.7663 18.8551 80.7172 17.8962C79.6787 16.9272 78.8574 15.8017 78.2534 14.5198C77.6599 13.2278 77.3632 11.85 77.3632 10.3864C77.3632 9.42754 77.4957 8.50397 77.7606 7.61572C78.0361 6.72747 78.4229 5.89978 78.921 5.13266C79.419 4.36554 80.0178 3.66907 80.7172 3.04326C81.4272 2.40735 82.2113 1.86734 83.0697 1.42322C83.928 0.968998 84.8553 0.620764 85.8514 0.378515C86.8581 0.126172 87.9019 0 88.9828 0C90.0743 0 91.1181 0.126172 92.1142 0.378515C93.1103 0.620764 94.0376 0.968998 94.8959 1.42322C95.7649 1.86734 96.549 2.40735 97.2484 3.04326C97.9478 3.66907 98.5466 4.36554 99.0446 5.13266C99.5533 5.89978 99.9401 6.72747 100.205 7.61572C100.481 8.50397 100.618 9.42754 100.618 10.3864C100.618 11.3655 100.481 12.3043 100.205 13.2026C99.9401 14.1009 99.5533 14.9438 99.0446 15.7311C98.5466 16.5184 97.9478 17.235 97.2484 17.881C96.549 18.527 95.7649 19.0822 94.8959 19.5465C94.0376 20.0108 93.1103 20.3691 92.1142 20.6215C91.1181 20.8738 90.0743 21 88.9828 21ZM88.9828 20.0007C90.1909 20.0007 91.2559 19.7635 92.1778 19.2891C93.1103 18.8046 93.8945 18.1334 94.5303 17.2754C95.1661 16.4174 95.643 15.403 95.9609 14.2322C96.2894 13.0613 96.4537 11.7794 96.4537 10.3864C96.4537 9.0036 96.2894 7.73684 95.9609 6.58616C95.643 5.43547 95.1661 4.44629 94.5303 3.6186C93.8945 2.78082 93.1103 2.13482 92.1778 1.68061C91.2559 1.21629 90.1909 0.984138 88.9828 0.984138C87.7536 0.984138 86.6727 1.21629 85.7401 1.68061C84.8182 2.13482 84.0393 2.78082 83.4035 3.6186C82.7783 4.44629 82.3067 5.43547 81.9888 6.58616C81.6709 7.73684 81.5119 9.0036 81.5119 10.3864C81.5119 11.7794 81.6709 13.0613 81.9888 14.2322C82.3067 15.403 82.7783 16.4174 83.4035 17.2754C84.0393 18.1334 84.8182 18.8046 85.7401 19.2891C86.6727 19.7635 87.7536 20.0007 88.9828 20.0007Z" fill="black"/>
<path d="M105.387 0.454218H112.699C113.96 0.454218 115.067 0.585436 116.021 0.847873C116.975 1.10022 117.769 1.45854 118.405 1.92286C119.041 2.38717 119.518 2.94232 119.836 3.58832C120.164 4.22422 120.329 4.92069 120.329 5.67772C120.329 6.30353 120.201 6.88897 119.947 7.43403C119.703 7.97909 119.354 8.47368 118.898 8.91781C118.453 9.35184 117.913 9.73035 117.277 10.0534C116.641 10.3663 115.942 10.6136 115.179 10.7952L122.856 20.5306H118.739L111.411 11.0981H108.932V20.5306H105.387V0.454218ZM108.932 10.0836H110.982C111.777 10.0836 112.508 9.9827 113.176 9.78082C113.854 9.57895 114.437 9.29632 114.924 8.93295C115.422 8.55948 115.809 8.11031 116.085 7.58544C116.36 7.06056 116.498 6.47008 116.498 5.81399C116.498 5.20836 116.387 4.65321 116.164 4.14852C115.952 3.64384 115.645 3.21485 115.242 2.86157C114.85 2.4982 114.378 2.21557 113.827 2.0137C113.287 1.81182 112.694 1.71089 112.047 1.71089H108.932V10.0836Z" fill="black"/>
<path d="M125.733 0.454218H129.278V20.5306H125.733V0.454218Z" fill="black"/>
<path d="M143.266 0L153.185 20.5306H149.576L146.365 13.8385H137.321L133.999 20.5306H132.218L142.376 0H143.266ZM137.321 13.8385H146.365L141.883 4.5876L137.321 13.8385Z" fill="black"/>
<path d="M164.073 0.454218H172.561C173.684 0.454218 174.712 0.575342 175.645 0.817592C176.588 1.04975 177.393 1.38284 178.061 1.81687C178.739 2.2509 179.264 2.77073 179.635 3.37635C180.006 3.98198 180.191 4.64816 180.191 5.37491C180.191 5.93006 180.133 6.42466 180.016 6.85869C179.9 7.29272 179.693 7.69647 179.396 8.06994C179.099 8.43331 178.702 8.78154 178.204 9.11464C177.717 9.43764 177.097 9.77073 176.344 10.1139V10.1745C177.097 10.2855 177.775 10.4773 178.379 10.7498C178.983 11.0224 179.497 11.3706 179.921 11.7945C180.355 12.2084 180.689 12.6979 180.922 13.2632C181.155 13.8183 181.272 14.429 181.272 15.0952C181.272 15.8522 181.097 16.5638 180.747 17.23C180.408 17.8861 179.915 18.4614 179.269 18.956C178.633 19.4405 177.86 19.8241 176.948 20.1067C176.048 20.3893 175.036 20.5306 173.912 20.5306H164.073V0.454218ZM167.618 9.49315H172.132C172.842 9.49315 173.472 9.39726 174.024 9.20548C174.575 9.0137 175.041 8.75126 175.422 8.41817C175.804 8.07498 176.09 7.67123 176.281 7.20692C176.482 6.73252 176.583 6.22278 176.583 5.67772C176.583 5.09229 176.466 4.56236 176.233 4.08796C176 3.60346 175.634 3.18962 175.136 2.84643C174.649 2.50324 174.024 2.24081 173.261 2.05912C172.508 1.87743 171.602 1.78659 170.542 1.78659H167.618V9.49315ZM167.618 19.062H171.448C172.476 19.062 173.367 18.9712 174.119 18.7895C174.882 18.5977 175.507 18.3353 175.995 18.0022C176.493 17.659 176.858 17.2502 177.091 16.7758C177.335 16.3014 177.457 15.7815 177.457 15.2163C177.457 14.5804 177.351 13.9899 177.139 13.4448C176.927 12.8998 176.577 12.4304 176.09 12.0368C175.613 11.633 174.983 11.3151 174.198 11.0829C173.425 10.8508 172.471 10.7347 171.337 10.7347H167.618V19.062Z" fill="black"/>
<path d="M185.595 0.454218H192.907C194.168 0.454218 195.276 0.585436 196.229 0.847873C197.183 1.10022 197.978 1.45854 198.614 1.92286C199.25 2.38717 199.726 2.94232 200.044 3.58832C200.373 4.22422 200.537 4.92069 200.537 5.67772C200.537 6.30353 200.41 6.88897 200.156 7.43403C199.912 7.97909 199.562 8.47368 199.107 8.91781C198.661 9.35184 198.121 9.73035 197.485 10.0534C196.849 10.3663 196.15 10.6136 195.387 10.7952L203.065 20.5306H198.948L191.62 11.0981H189.14V20.5306H185.595V0.454218ZM189.14 10.0836H191.191C191.985 10.0836 192.717 9.9827 193.384 9.78082C194.062 9.57895 194.645 9.29632 195.133 8.93295C195.631 8.55948 196.018 8.11031 196.293 7.58544C196.569 7.06056 196.706 6.47008 196.706 5.81399C196.706 5.20836 196.595 4.65321 196.373 4.14852C196.161 3.64384 195.853 3.21485 195.451 2.86157C195.059 2.4982 194.587 2.21557 194.036 2.0137C193.495 1.81182 192.902 1.71089 192.256 1.71089H189.14V10.0836Z" fill="black"/>
<path d="M205.942 0.454218H209.486V20.5306H205.942V0.454218Z" fill="black"/>
<path d="M227.21 1.43836C225.938 1.43836 224.762 1.65537 223.681 2.0894C222.611 2.51334 221.683 3.12906 220.899 3.93655C220.126 4.73396 219.522 5.70296 219.087 6.84355C218.653 7.97404 218.435 9.24081 218.435 10.6438C218.435 12.057 218.669 13.3338 219.135 14.4744C219.612 15.6049 220.258 16.5689 221.074 17.3663C221.901 18.1637 222.87 18.7794 223.983 19.2134C225.096 19.6373 226.288 19.8493 227.559 19.8493C228.481 19.8493 229.313 19.7332 230.055 19.5011C230.797 19.2588 231.464 18.9156 232.058 18.4715V11.4311H228.068V10.235H235.603V19.062C234.988 19.3749 234.368 19.6525 233.743 19.8947C233.118 20.137 232.439 20.3389 231.708 20.5004C230.988 20.6619 230.193 20.783 229.324 20.8637C228.455 20.9546 227.469 21 226.367 21C225.202 21 224.094 20.8738 223.045 20.6215C221.996 20.3792 221.021 20.031 220.12 19.5768C219.23 19.1226 218.425 18.5826 217.704 17.9567C216.984 17.3208 216.369 16.6193 215.86 15.8522C215.362 15.0851 214.976 14.2624 214.7 13.3843C214.424 12.496 214.287 11.5826 214.287 10.6438C214.287 9.70512 214.414 8.79164 214.668 7.90339C214.933 7.00505 215.309 6.16222 215.797 5.37491C216.284 4.57751 216.878 3.85076 217.577 3.19466C218.276 2.53857 219.066 1.97332 219.946 1.49892C220.825 1.02451 221.784 0.656092 222.823 0.393655C223.861 0.131218 224.963 0 226.129 0C227.242 0 228.269 0.146359 229.213 0.439077C230.166 0.721702 231.03 1.10022 231.804 1.57462C232.588 2.04903 233.282 2.59913 233.886 3.22495C234.49 3.84066 235.009 4.48666 235.444 5.16294L233.918 6.13194C233.027 4.50685 232.037 3.32084 230.945 2.5739C229.864 1.81687 228.619 1.43836 227.21 1.43836Z" fill="black"/>
<path d="M244.552 10.9012V20.5306H241.007V0.454218H244.552V9.59913H255.138V0.454218H258.683V20.5306H255.138V10.9012H244.552Z" fill="black"/>
<path d="M281 0.454218V1.75631H273.37V20.5306H269.825V1.75631H262.196V0.454218H281Z" fill="black"/>
</svg>
