<svg width="16" height="16" viewBox="0 0 16 16" fill="none" xmlns="http://www.w3.org/2000/svg">
<rect width="16" height="16" fill="black"/>
<path d="M3.09557 5L5.43124 9.6647L7.59907 5H8.09324L5.28671 11H5.01632L2 5H3.09557Z" fill="#FFCFE3"/>
<path d="M8.95571 5H11.4452C11.7747 5 12.0761 5.03537 12.3497 5.10612C12.6263 5.17391 12.8625 5.27119 13.0583 5.39794C13.2572 5.52469 13.411 5.67649 13.5198 5.85335C13.6286 6.03021 13.683 6.22476 13.683 6.43699C13.683 6.59912 13.6659 6.74355 13.6317 6.8703C13.5975 6.99705 13.5369 7.11496 13.4499 7.22402C13.3629 7.33014 13.2463 7.43183 13.1002 7.52911C12.9573 7.62343 12.7754 7.72071 12.5548 7.82093V7.83861C12.7754 7.87104 12.9744 7.92704 13.1515 8.00663C13.3287 8.08622 13.4794 8.18791 13.6037 8.31172C13.7312 8.43257 13.8291 8.57553 13.8974 8.7406C13.9658 8.90273 14 9.08106 14 9.27561C14 9.49668 13.9487 9.7045 13.8462 9.89904C13.7467 10.0906 13.6022 10.2587 13.4126 10.4031C13.2261 10.5446 12.9992 10.6566 12.7319 10.7391C12.4678 10.8217 12.1709 10.8629 11.8415 10.8629H8.95571V5ZM9.99534 7.63965H11.3193C11.5276 7.63965 11.7125 7.61164 11.8741 7.55564C12.0357 7.49963 12.1725 7.42299 12.2844 7.32572C12.3963 7.2255 12.4802 7.10759 12.5361 6.972C12.5952 6.83346 12.6247 6.6846 12.6247 6.52542C12.6247 6.35446 12.5905 6.19971 12.5221 6.06116C12.4538 5.91968 12.3465 5.79882 12.2005 5.6986C12.0575 5.59838 11.8741 5.52174 11.6503 5.46868C11.4297 5.41562 11.1639 5.38909 10.8531 5.38909H9.99534V7.63965ZM9.99534 10.434H11.1189C11.4204 10.434 11.6814 10.4075 11.9021 10.3545C12.1259 10.2985 12.3092 10.2218 12.4522 10.1245C12.5983 10.0243 12.7055 9.90494 12.7739 9.7664C12.8454 9.62786 12.8811 9.47605 12.8811 9.31098C12.8811 9.12528 12.85 8.95284 12.7879 8.79366C12.7257 8.63449 12.6232 8.49742 12.4802 8.38246C12.3403 8.26455 12.1554 8.1717 11.9254 8.10391C11.6985 8.03611 11.4188 8.00221 11.0862 8.00221H9.99534V10.434Z" fill="#FFCFE3"/>
</svg>
