<svg xmlns="http://www.w3.org/2000/svg" viewBox="0 0 335.885009765625 679.5889892578125" fill="none" preserveAspectRatio="xMidYMid meet" role="img">
<path d="M167.943 679.589C121.453 679.589 78.4587 643.131 46.9013 576.835C16.656 513.34 0 429.155 0 339.795C0 250.435 16.656 166.248 46.9013 102.755C78.4587 36.4573 121.453 0 167.943 0C214.432 0 257.427 36.4587 288.984 102.755C319.229 166.249 335.885 250.435 335.885 339.795C335.885 429.155 319.229 513.341 288.984 576.835C257.427 643.132 214.432 679.589 167.943 679.589ZM167.943 23.336C130.943 23.336 95.448 55.096 67.9734 112.789C39.1867 173.237 23.3333 253.856 23.3333 339.789C23.3333 425.727 39.188 506.349 67.9734 566.789C95.4467 624.467 130.943 656.243 167.943 656.243C204.943 656.243 240.437 624.467 267.912 566.789C296.699 506.341 312.552 425.723 312.552 339.789C312.552 253.852 296.697 173.229 267.912 112.789C240.439 55.096 204.943 23.336 167.943 23.336Z" fill="white"></path>
</svg>