<svg xmlns="http://www.w3.org/2000/svg" viewBox="0.8623065948486328 0.5200200080871582 679.6146850585938 679.6041259765625" fill="none" preserveAspectRatio="xMidYMid meet" role="img">
<path d="M340.666 680.12C273.458 680.12 207.76 660.193 151.88 622.86C95.9996 585.521 52.4476 532.453 26.7289 470.367C1.01022 408.273 -5.71911 339.951 7.39023 274.033C20.5048 208.116 52.8689 147.569 100.39 100.047C164.114 36.3227 250.55 0.52002 340.67 0.52002C430.79 0.52002 517.217 36.3227 580.95 100.047C644.684 163.771 680.477 250.207 680.477 340.327C680.477 430.447 644.674 516.873 580.95 580.607C549.466 612.252 512.024 637.347 470.778 654.429C429.533 671.508 385.314 680.241 340.674 680.123L340.666 680.12ZM340.666 23.8667C166.173 23.8667 24.2129 165.84 24.2129 340.32C24.2129 514.8 166.186 656.773 340.666 656.773C515.146 656.773 657.12 514.8 657.12 340.32C657.12 165.84 515.146 23.8667 340.666 23.8667Z" fill="white"></path>
<path d="M340.666 202.547C299.51 202.567 258.625 195.88 219.625 182.74C176.594 168.213 136.568 145.975 101.5 117.115C99.0935 115.156 97.5675 112.318 97.2602 109.229C96.9529 106.141 97.8852 103.057 99.8539 100.661C101.828 98.2654 104.672 96.7498 107.76 96.4582C110.849 96.1614 113.927 97.1093 116.317 99.0885C149.219 126.162 186.776 147.021 227.151 160.646C300.87 185.422 380.671 185.422 454.391 160.646C494.766 147.021 532.323 126.162 565.224 99.0885C567.557 96.7292 570.782 95.474 574.094 95.6354C577.406 95.7969 580.495 97.3646 582.584 99.9376C584.677 102.516 585.568 105.859 585.047 109.135C584.521 112.411 582.63 115.307 579.839 117.099C544.771 145.963 504.746 168.198 461.714 182.724C422.714 195.87 381.828 202.563 340.672 202.547L340.666 202.547Z" fill="white"></path>
<path d="M572.546 584.24C569.843 584.24 567.223 583.302 565.14 581.584C532.233 554.516 494.676 533.657 454.307 520.032C380.583 495.25 300.787 495.25 227.067 520.032C186.692 533.657 149.14 554.516 116.233 581.584C113.874 583.802 110.707 584.938 107.478 584.724C104.249 584.511 101.259 582.969 99.2126 580.464C97.1658 577.959 96.249 574.719 96.6866 571.516C97.1189 568.308 98.8637 565.427 101.504 563.563C136.572 534.699 176.598 512.464 219.63 497.938C298.198 471.542 383.23 471.542 461.803 497.938C504.834 512.464 544.86 534.698 579.928 563.563C583.73 566.688 585.163 571.86 583.507 576.495C581.855 581.131 577.47 584.23 572.548 584.24L572.546 584.24Z" fill="white"></path>
<path d="M668.787 352H12.5334C6.0907 352 0.866699 346.776 0.866699 340.333C0.866699 333.891 6.0907 328.667 12.5334 328.667H668.787C675.229 328.667 680.453 333.891 680.453 340.333C680.453 346.776 675.229 352 668.787 352Z" fill="white"></path>
<path d="M340.667 680.12C334.224 680.12 329 674.896 329 668.453V12.1999C329 5.75721 334.224 0.533203 340.667 0.533203C347.109 0.533203 352.333 5.75721 352.333 12.1999V668.453C352.333 671.547 351.104 674.516 348.917 676.703C346.729 678.891 343.76 680.12 340.667 680.12Z" fill="white"></path>
</svg>