<svg xmlns="http://www.w3.org/2000/svg" viewBox="0.095672607421875 0.15160369873046875 663.1358642578125 610.4393920898438" fill="#4E4E4E" style="box-shadow: none; border-radius: 0px; opacity: 1;" preserveAspectRatio="xMidYMid meet" fill-opacity="1" role="img">
<path d="M626.133 37.2706C576.644 -12.2187 496.107 -12.2241 446.613 37.2706L177.52 306.364C142.583 341.301 142.583 398.145 177.52 433.088C194.993 450.552 217.936 459.291 240.875 459.291C263.817 459.291 286.765 450.556 304.239 433.088L513.825 223.501L482.153 191.819L272.567 401.405C255.093 418.864 226.671 418.879 209.197 401.405C191.733 383.932 191.733 355.509 209.197 338.041L478.291 68.9479C510.321 36.9319 562.427 36.9213 594.457 68.9479C626.473 100.979 626.473 153.084 594.457 185.109L248.764 530.789C226.201 553.352 196.196 565.784 164.295 565.784C132.383 565.784 102.383 553.352 79.816 530.789C57.2587 508.227 44.8267 478.221 44.8267 446.32C44.8267 414.408 57.2538 384.408 79.816 361.841L330.416 111.228L298.744 79.5559L48.1307 330.169C-15.916 394.216 -15.916 498.423 48.1307 562.476C79.1574 593.507 120.407 610.591 164.292 610.591C208.167 610.591 249.412 593.497 280.443 562.476L626.123 216.796C675.601 167.307 675.601 86.7799 626.123 37.2759L626.133 37.2706Z" fill="" style="undefined" fill-opacity=""></path>
</svg>