<svg xmlns="http://www.w3.org/2000/svg" viewBox="0 -2.384185791015625e-7 1447 114" fill="none" preserveAspectRatio="xMidYMid meet" role="img">
<g clip-path="url(#2883aefe-8a45-4582-aafb-e3d9cae16aac)">
<path d="M19.2355 2.46575L60.2439 89.1781L98.3056 2.46575H106.982L57.7065 114H52.959L0 2.46575H19.2355Z" fill="white"></path>
<path d="M122.125 2.46575H140.379V111.452H122.125V2.46575Z" fill="white"></path>
<path d="M187.116 57.3698C187.116 64.9864 188.262 71.8356 190.554 77.9178C192.846 83.9452 195.984 89.0685 199.967 93.2877C204.006 97.4521 208.752 100.658 214.21 102.904C219.667 105.096 225.587 106.192 231.971 106.192C235.791 106.192 239.474 105.452 243.022 103.973C246.569 102.493 249.842 100.575 252.845 98.2192C255.9 95.8083 258.629 93.1233 261.03 90.1643C263.43 87.1507 265.395 84.1096 266.923 81.0411L274.617 85.9726C272.38 89.6439 269.733 93.178 266.677 96.5754C263.622 99.9178 260.074 102.904 256.037 105.534C252.052 108.11 247.524 110.164 242.449 111.699C237.428 113.233 231.808 114 225.587 114C216.584 114 208.398 112.493 201.031 109.479C193.72 106.466 187.443 102.384 182.204 97.2328C176.967 92.0822 172.901 86.0822 170.009 79.2329C167.172 72.3288 165.753 65.0411 165.753 57.3698C165.753 52.274 166.408 47.315 167.717 42.4931C169.027 37.6164 170.91 33.0685 173.365 28.8493C175.875 24.5754 178.904 20.6849 182.45 17.1781C186.052 13.6165 190.09 10.5753 194.565 8.05479C199.094 5.47945 204.032 3.50685 209.381 2.13698C214.728 0.712329 220.431 0 226.487 0C232.272 0 237.592 0.79452 242.449 2.38357C247.36 3.91781 251.807 5.97261 255.791 8.54795C259.829 11.1233 263.403 14.1096 266.513 17.5068C269.679 20.8493 272.38 24.3561 274.617 28.0274L266.677 33.2877C262.149 24.4657 257.073 18.0274 251.453 13.9726C245.833 9.86302 239.366 7.80822 232.053 7.80822C225.778 7.80822 219.912 8.9589 214.456 11.2603C208.998 13.5616 204.224 16.8493 200.131 21.1233C196.092 25.3972 192.901 30.6028 190.554 36.7397C188.262 42.822 187.116 49.6987 187.116 57.3698Z" fill="white"></path>
<path d="M385.364 2.46575V9.53424H346.075V111.452H327.822V9.53424H288.533V2.46575H385.364Z" fill="white"></path>
<path d="M458.214 114C449.81 114 441.953 112.493 434.64 109.479C427.383 106.466 421.053 102.356 415.651 97.1507C410.302 91.8904 406.074 85.7809 402.963 78.822C399.907 71.8082 398.379 64.3287 398.379 56.3836C398.379 51.178 399.062 46.1644 400.426 41.3425C401.845 36.5206 403.836 32.0274 406.401 27.8631C408.965 23.6986 412.049 19.9178 415.651 16.5206C419.307 13.0685 423.344 10.137 427.764 7.72603C432.184 5.26028 436.96 3.36987 442.089 2.0548C447.274 0.684932 452.648 0 458.214 0C463.835 0 469.21 0.684932 474.339 2.0548C479.468 3.36987 484.243 5.26028 488.664 7.72603C493.138 10.137 497.177 13.0685 500.778 16.5206C504.379 19.9178 507.463 23.6986 510.027 27.8631C512.646 32.0274 514.638 36.5206 516.002 41.3425C517.421 46.1644 518.13 51.178 518.13 56.3836C518.13 61.6987 517.421 66.7946 516.002 71.6713C514.638 76.548 512.646 81.1233 510.027 85.3973C507.463 89.6712 504.379 93.5617 500.778 97.0685C497.177 100.575 493.138 103.589 488.664 106.11C484.243 108.63 479.468 110.575 474.339 111.945C469.21 113.315 463.835 114 458.214 114ZM458.214 108.575C464.434 108.575 469.919 107.288 474.666 104.712C479.468 102.082 483.507 98.4383 486.781 93.7808C490.055 89.1234 492.511 83.6165 494.148 77.2603C495.839 70.9042 496.685 63.9453 496.685 56.3836C496.685 48.8767 495.839 42 494.148 35.7535C492.511 29.5069 490.055 24.137 486.781 19.6438C483.507 15.0959 479.468 11.589 474.666 9.12329C469.919 6.60273 464.434 5.34246 458.214 5.34246C451.884 5.34246 446.318 6.60273 441.516 9.12329C436.768 11.589 432.757 15.0959 429.483 19.6438C426.264 24.137 423.835 29.5069 422.198 35.7535C420.562 42 419.744 48.8767 419.744 56.3836C419.744 63.9453 420.562 70.9042 422.198 77.2603C423.835 83.6165 426.264 89.1234 429.483 93.7808C432.757 98.4383 436.768 102.082 441.516 104.712C446.318 107.288 451.884 108.575 458.214 108.575Z" fill="white"></path>
<path d="M542.686 2.46575H580.34C586.833 2.46575 592.535 3.17808 597.446 4.60273C602.357 5.9726 606.45 7.9178 609.724 10.4384C612.999 12.9589 615.454 15.9726 617.091 19.4794C618.783 22.9315 619.629 26.7123 619.629 30.8219C619.629 34.2192 618.974 37.3973 617.664 40.3561C616.409 43.3151 614.608 46.0001 612.262 48.4109C609.97 50.7671 607.187 52.8219 603.913 54.5754C600.638 56.274 597.037 57.6164 593.108 58.6028L632.643 111.452H611.443L573.709 60.2466H560.94V111.452H542.686V2.46575ZM560.94 54.7397H571.499C575.592 54.7397 579.357 54.1918 582.794 53.0959C586.287 52 589.288 50.4658 591.798 48.4932C594.363 46.4657 596.354 44.0275 597.773 41.1781C599.193 38.3288 599.902 35.1233 599.902 31.5617C599.902 28.274 599.329 25.2603 598.183 22.5206C597.091 19.7809 595.509 17.4521 593.435 15.5342C591.416 13.5616 588.988 12.0274 586.15 10.9315C583.367 9.83561 580.312 9.28767 576.983 9.28767H560.94V54.7397Z" fill="white"></path>
<path d="M647.458 2.46575H665.711V111.452H647.458V2.46575Z" fill="white"></path>
<path d="M737.743 0L788.818 111.452H770.238L753.703 75.1233H707.129L690.022 111.452H680.854L733.159 0H737.743ZM707.129 75.1233H753.703L730.621 24.9041L707.129 75.1233Z" fill="white"></path>
<path d="M844.888 2.46575H888.598C894.382 2.46575 899.675 3.12328 904.477 4.43835C909.334 5.69863 913.481 7.50684 916.919 9.86301C920.411 12.2192 923.112 15.0411 925.022 18.3288C926.933 21.6164 927.887 25.2328 927.887 29.178C927.887 32.1917 927.588 34.8767 926.987 37.2329C926.386 39.589 925.322 41.7809 923.795 43.8082C922.267 45.7808 920.221 47.6712 917.655 49.4794C915.146 51.2329 911.953 53.0411 908.078 54.9041V55.2329C911.953 55.8356 915.445 56.8767 918.556 58.3562C921.666 59.8357 924.313 61.7261 926.496 64.0274C928.734 66.274 930.453 68.9316 931.653 72C932.853 75.0137 933.454 78.3287 933.454 81.9452C933.454 86.0548 932.553 89.9178 930.752 93.5342C929.006 97.0959 926.468 100.219 923.14 102.904C919.866 105.534 915.882 107.616 911.189 109.151C906.551 110.685 901.34 111.452 895.556 111.452H844.888V2.46575ZM863.141 51.5342H886.388C890.044 51.5342 893.29 51.0137 896.129 49.9726C898.966 48.9314 901.367 47.5068 903.332 45.6986C905.295 43.8356 906.769 41.6438 907.751 39.1233C908.789 36.548 909.306 33.7808 909.306 30.8219C909.306 27.6438 908.707 24.7672 907.505 22.1918C906.305 19.5616 904.422 17.315 901.859 15.452C899.347 13.5891 896.129 12.1644 892.2 11.1781C888.325 10.1918 883.659 9.69863 878.202 9.69863H863.141V51.5342ZM863.141 103.479H882.868C888.161 103.479 892.745 102.986 896.62 102C900.549 100.959 903.768 99.5342 906.277 97.726C908.843 95.863 910.725 93.6438 911.925 91.0685C913.181 88.4932 913.808 85.6713 913.808 82.6028C913.808 79.1507 913.263 75.9452 912.171 72.9862C911.081 70.0274 909.28 67.4795 906.769 65.3424C904.313 63.1507 901.066 61.4247 897.029 60.1644C893.044 58.9041 888.134 58.274 882.295 58.274H863.141V103.479Z" fill="white"></path>
<path d="M955.717 2.46575H993.369C999.864 2.46575 1005.57 3.17808 1010.48 4.60273C1015.39 5.9726 1019.48 7.9178 1022.76 10.4384C1026.03 12.9589 1028.48 15.9726 1030.12 19.4794C1031.81 22.9315 1032.66 26.7123 1032.66 30.8219C1032.66 34.2192 1032 37.3973 1030.69 40.3561C1029.44 43.3151 1027.64 46.0001 1025.29 48.4109C1023 50.7671 1020.22 52.8219 1016.94 54.5754C1013.67 56.274 1010.07 57.6164 1006.14 58.6028L1045.67 111.452H1024.47L986.739 60.2466H973.971V111.452H955.717V2.46575ZM973.971 54.7397H984.529C988.622 54.7397 992.387 54.1918 995.825 53.0959C999.317 52 1002.32 50.4658 1004.83 48.4932C1007.39 46.4657 1009.39 44.0275 1010.8 41.1781C1012.22 38.3288 1012.93 35.1233 1012.93 31.5617C1012.93 28.274 1012.36 25.2603 1011.21 22.5206C1010.12 19.7809 1008.54 17.4521 1006.47 15.5342C1004.45 13.5616 1002.02 12.0274 999.181 10.9315C996.398 9.83561 993.343 9.28767 990.013 9.28767H973.971V54.7397Z" fill="white"></path>
<path d="M1060.49 2.46575H1078.74V111.452H1060.49V2.46575Z" fill="white"></path>
<path d="M1170.01 7.80822C1163.46 7.80822 1157.4 8.9863 1151.84 11.3425C1146.33 13.6438 1141.55 16.9863 1137.51 21.3698C1133.53 25.6986 1130.42 30.959 1128.18 37.1507C1125.94 43.2877 1124.83 50.1644 1124.83 57.7808C1124.83 65.452 1126.03 72.3835 1128.43 78.5753C1130.88 84.7123 1134.21 89.9452 1138.41 94.274C1142.67 98.6027 1147.66 101.945 1153.39 104.301C1159.12 106.603 1165.26 107.753 1171.81 107.753C1176.56 107.753 1180.84 107.123 1184.66 105.863C1188.48 104.548 1191.92 102.685 1194.97 100.274V62.0548H1174.43V55.5616H1213.23V103.479C1210.06 105.178 1206.87 106.685 1203.65 108C1200.43 109.315 1196.94 110.411 1193.17 111.288C1189.46 112.164 1185.37 112.822 1180.9 113.26C1176.42 113.753 1171.35 114 1165.67 114C1159.67 114 1153.97 113.315 1148.56 111.945C1143.16 110.63 1138.14 108.74 1133.5 106.274C1128.92 103.808 1124.77 100.877 1121.06 97.4794C1117.35 94.0275 1114.18 90.2192 1111.57 86.0548C1109 81.8904 1107.01 77.4247 1105.59 72.6575C1104.17 67.8356 1103.46 62.8767 1103.46 57.7808C1103.46 52.685 1104.12 47.726 1105.43 42.9042C1106.79 38.0274 1108.73 33.4521 1111.24 29.178C1113.75 24.8493 1116.8 20.9042 1120.41 17.3424C1124.01 13.7809 1128.07 10.7123 1132.6 8.13699C1137.13 5.56165 1142.07 3.56164 1147.42 2.13698C1152.77 0.712329 1158.44 0 1164.44 0C1170.17 0 1175.47 0.79452 1180.32 2.38357C1185.23 3.91781 1189.68 5.97261 1193.66 8.54795C1197.7 11.1233 1201.28 14.1096 1204.39 17.5068C1207.5 20.8493 1210.17 24.3561 1212.41 28.0274L1204.55 33.2877C1199.97 24.4657 1194.87 18.0274 1189.24 13.9726C1183.68 9.86302 1177.27 7.80822 1170.01 7.80822Z" fill="white"></path>
<path d="M1259.31 59.1781V111.452H1241.06V2.46575H1259.31V52.1095H1313.82V2.46575H1332.07V111.452H1313.82V59.1781H1259.31Z" fill="white"></path>
<path d="M1447 2.46575V9.53424H1407.71V111.452H1389.46V9.53424H1350.17V2.46575H1447Z" fill="white"></path>
</g>
<defs>
<clipPath id="2883aefe-8a45-4582-aafb-e3d9cae16aac">
<rect width="1447" height="114" fill="white"></rect>
</clipPath>
</defs>
</svg>